<svg xmlns="http://www.w3.org/2000/svg" width="100%" height="100%" viewBox="0 0 366 101" fill-rule="evenodd" stroke-linejoin="round" stroke-miterlimit="2"><g transform="matrix(1.0734 0 0 1.0734 -19.63 -2.79782)" fill="#999"><circle cx="59.311" cy="35.587" r="1.483"/><circle cx="44.484" cy="35.587" r="1.483"/><circle cx="64.254" cy="35.587" r="1.483"/><circle cx="39.541" cy="35.587" r="1.483"/><circle cx="54.369" cy="35.587" r="1.483"/><circle cx="49.426" cy="35.587" r="1.483"/><circle cx="74.139" cy="35.587" r="1.483"/><circle cx="69.197" cy="35.587" r="1.483"/><circle cx="29.656" cy="35.587" r="1.483"/><circle cx="34.598" cy="35.587" r="1.483"/><circle cx="24.713" cy="35.587" r="1.483"/><path d="M27.184 22.242h19.771a1.49 1.49 0 0 0 1.483-1.483 1.49 1.49 0 0 0-1.483-1.482H27.184a1.49 1.49 0 0 0-1.482 1.482 1.49 1.49 0 0 0 1.482 1.483zm0 4.943H56.84a1.49 1.49 0 0 0 1.483-1.483 1.49 1.49 0 0 0-1.483-1.483H27.184a1.49 1.49 0 0 0-1.482 1.483 1.49 1.49 0 0 0 1.482 1.483zm-1.482 23.23a1.49 1.49 0 0 0 1.482 1.483h44.484a1.49 1.49 0 0 0 1.483-1.483 1.49 1.49 0 0 0-1.483-1.483H27.184a1.49 1.49 0 0 0-1.482 1.483zm0-4.943a1.49 1.49 0 0 0 1.482 1.483h39.541a1.49 1.49 0 0 0 1.483-1.483 1.49 1.49 0 0 0-1.483-1.482H27.184a1.49 1.49 0 0 0-1.482 1.482zm41.023 8.403H27.184a1.49 1.49 0 0 0-1.482 1.483 1.49 1.49 0 0 0 1.482 1.482h39.541a1.49 1.49 0 0 0 1.483-1.482 1.49 1.49 0 0 0-1.483-1.483zm-4.942 4.942H27.184a1.49 1.49 0 0 0-1.482 1.483 1.49 1.49 0 0 0 1.482 1.483h34.599a1.49 1.49 0 0 0 1.483-1.483 1.49 1.49 0 0 0-1.483-1.483zM27.184 71.668h19.771a1.49 1.49 0 0 0 1.483-1.483 1.49 1.49 0 0 0-1.483-1.482H27.184a1.49 1.49 0 0 0-1.482 1.482 1.49 1.49 0 0 0 1.482 1.483zm19.771 6.92H27.184a1.49 1.49 0 0 0-1.482 1.483 1.49 1.49 0 0 0 1.482 1.483h19.771a1.49 1.49 0 0 0 1.483-1.483 1.49 1.49 0 0 0-1.483-1.483zm4.943-14.828H27.184a1.49 1.49 0 0 0-1.482 1.483 1.49 1.49 0 0 0 1.482 1.483h24.714a1.49 1.49 0 0 0 1.482-1.483 1.49 1.49 0 0 0-1.482-1.483zm0 9.885H27.184a1.49 1.49 0 0 0-1.482 1.483 1.49 1.49 0 0 0 1.482 1.483h24.714a1.49 1.49 0 0 0 1.482-1.483 1.49 1.49 0 0 0-1.482-1.483zm28.667-8.561V20.759c0-.096-.01-.19-.029-.284a1.44 1.44 0 0 0-.128-.364l-.047-.087c-.063-.114-.141-.22-.231-.314L65.302 4.883c-.093-.093-.201-.167-.312-.232l-.088-.046c-.113-.056-.231-.101-.354-.127-.105-.019-.199-.029-.294-.029h-39.2c-3.731 0-6.766 3.035-6.766 6.767v73.456c0 3.731 3.035 6.768 6.766 6.768h37.412c2.964 3.043 7.098 4.942 11.673 4.942 8.994 0 16.311-7.317 16.311-16.31 0-6.713-4.078-12.488-9.885-14.988zm-5.063-45.807h-9.765V9.511l9.765 9.766zM25.054 88.473c-2.084-.003-3.799-1.717-3.801-3.802V11.216c.002-2.084 1.717-3.799 3.801-3.802h37.717v13.345a1.49 1.49 0 0 0 1.483 1.483h13.345v41.896c-1.116-.242-2.271-.378-3.46-.378-8.993 0-16.31 7.317-16.31 16.311 0 3.075.872 5.945 2.357 8.402H25.054zm49.085 4.943c-7.316-.011-13.334-6.028-13.345-13.345.011-7.317 6.029-13.335 13.345-13.345 7.317.01 13.335 6.028 13.345 13.345-.01 7.317-6.028 13.334-13.345 13.345zM84.2 76.681c-.175-.537-.639-.927-1.198-1.009l-5.205-.755-2.328-4.717c-.25-.505-.766-.826-1.33-.826s-1.08.321-1.329.826l-2.328 4.717-5.205.756a1.49 1.49 0 0 0-1.27 1.467 1.48 1.48 0 0 0 .449 1.062l3.766 3.672-.889 5.184c-.095.556.134 1.119.59 1.451s1.064.375 1.562.112l4.654-2.448 4.656 2.448a1.47 1.47 0 0 0 .69.17c.308 0 .614-.095.872-.282.456-.332.686-.896.59-1.451l-.888-5.184 3.766-3.672a1.49 1.49 0 0 0 .375-1.521zm-6.771 3.613c-.349.34-.509.832-.427 1.313l.513 2.99-2.687-1.412c-.215-.113-.452-.17-.69-.17s-.477.058-.69.17l-2.686 1.412.513-2.99c.082-.481-.078-.973-.427-1.313l-2.173-2.118 3.003-.436c.483-.07.901-.374 1.117-.811l1.344-2.723 1.344 2.722c.216.437.634.741 1.117.811l3.003.436-2.174 2.119z" fill-rule="nonzero"/></g><path d="M129.654.509c.371 0 1.296.14 1.296 1.621v30.602c0 2.269-.324 3.796-.973 4.63-.648.879-1.667 1.342-3.009 1.342h-3.38c-.648 0-1.157-.046-1.573-.139-.463-.093-.88-.232-1.251-.51-.371-.231-.695-.555-1.018-1.018-.411-.534-.768-1.108-1.065-1.713L104.006 9.306c-.093-.139-.14-.139-.14-.139h-.231v27.917c0 1.435-.88 1.62-1.296 1.62h-4.12c-.417 0-1.343-.185-1.343-1.62V6.482c0-2.269.325-3.796.973-4.676C98.498.973 99.516.51 100.858.51h3.473a16.24 16.24 0 0 1 1.62.093c.509.093.926.278 1.296.556.324.231.648.602.973 1.064.324.418.648.973 1.018 1.667l14.63 26.019c.046.139.093.139.139.139h.232V2.13c0-1.482.879-1.621 1.296-1.621h4.12-.001zm38.658 15.51c.371 0 1.296.185 1.296 1.621v3.657c0 1.435-.926 1.574-1.296 1.574h-20.695c-.046 0-.093 14.213-.093 14.213 0 1.435-.926 1.62-1.296 1.62h-4.259c-.371 0-1.296-.185-1.296-1.62l.093-17.871c.093-.417.278-.833.462-1.204.695-1.111 1.852-1.851 3.195-1.944l23.889-.046zm.231-15.51c.371 0 1.296.14 1.296 1.621v3.657c0 1.435-.926 1.574-1.296 1.574h-26.621c-.37 0-1.25-.185-1.25-1.62V2.176c0-1.482.88-1.667 1.25-1.667h26.621zm43.011 0c.417 0 1.342.14 1.342 1.574v3.611c0 1.528-.926 1.667-1.342 1.667h-11.899v29.723c0 1.435-.88 1.574-1.296 1.574H194.1c-.371 0-1.296-.14-1.296-1.574V7.362h-11.899c-.417 0-1.343-.14-1.343-1.667V2.084c0-1.435.927-1.574 1.343-1.574h30.649V.509zm65.464 0c.371 0 1.296.185 1.296 1.621v3.564c0 1.482-.926 1.667-1.296 1.667h-16.621c-.973 0-1.806.093-2.407.324-.602.185-1.018.509-1.389 1.018s-.602 1.158-.787 2.038c-.139.879-.231 2.037-.231 3.426v10.788c0 1.388.093 2.546.231 3.472.185.88.417 1.574.787 2.038.371.509.787.833 1.389 1.018.602.231 1.435.324 2.407.324h16.621c.371 0 1.296.185 1.296 1.62v3.658c0 1.435-.926 1.62-1.296 1.62h-16.852c-2.038 0-3.796-.278-5.232-.787s-2.639-1.389-3.564-2.546c-.926-1.204-1.62-2.732-2.038-4.538-.417-1.851-.602-4.073-.602-6.666v-9.167c0-2.546.185-4.769.602-6.575.418-1.851 1.112-3.379 2.038-4.537.88-1.157 2.084-2.037 3.564-2.593 1.436-.509 3.195-.787 5.232-.787h16.852zm33.381 15.371c2.407 0 4.259.88 5.509 2.546 1.204 1.667 1.806 4.029 1.806 7.038v4.073c0 2.685-.602 4.862-1.76 6.529-1.204 1.713-3.102 2.592-5.648 2.592h-20.88c-.417 0-1.342-.139-1.342-1.573v-3.704c0-1.436.926-1.574 1.342-1.574h19.769c.786 0 1.064-.324 1.25-.602.278-.463.417-1.111.417-1.944v-3.982c0-2.269-.926-2.547-1.62-2.547h-13.889c-1.944 0-4.074-.277-5.509-2.175-1.157-1.621-1.806-4.213-1.806-7.408V9.63c0-2.684.602-4.907 1.806-6.574 1.204-1.713 3.056-2.547 5.602-2.547H315.4c.371 0 1.296.14 1.296 1.574v3.704c0 1.435-.926 1.574-1.296 1.574h-18.843c-.787 0-1.064.324-1.25.602-.232.462-.371 1.111-.371 1.944v3.426c0 2.269.88 2.547 1.574 2.547h13.889zM364.335 0c.695 0 .927.417 1.019.649.092.324.046.695-.14 1.157l-12.87 32.038c-.695 1.667-1.343 2.778-2.038 3.38-.185.185-.417.324-.695.463a5.58 5.58 0 0 1-3.195 1.018c-2.551-.009-4.805-1.714-5.509-4.167l-.324-.695L327.62 1.805c-.185-.462-.232-.833-.14-1.157.047-.185.278-.649.973-.649h5c.648 0 1.111.325 1.296.973l11.528 28.658c.046.093.046.14.046.14l.185-.047s.047 0 .047-.093L357.9.973c.278-.648.74-.973 1.342-.973h5.093zM140.228 48.438c.565 0 1.82.188 1.82 2.133v4.893c0 2.07-1.254 2.259-1.82 2.259h-16.124v40.28c0 1.944-1.192 2.133-1.756 2.133h-5.772c-.503 0-1.757-.188-1.757-2.133v-40.28H98.695c-.564 0-1.82-.188-1.82-2.259v-4.893c0-1.945 1.255-2.133 1.82-2.133h41.534-.001zm57.72 4.58c1.254 1.569 2.133 3.639 2.698 6.148.502 2.447.815 5.459.815 8.909v12.423c0 3.513-.313 6.525-.815 8.972-.565 2.509-1.444 4.579-2.698 6.211-1.254 1.568-2.887 2.76-4.893 3.45-1.945.69-4.329 1.067-7.09 1.067h-15.308c-2.761 0-5.144-.377-7.027-1.067-1.945-.655-3.65-1.879-4.893-3.513-1.192-1.569-2.133-3.639-2.697-6.148-.565-2.447-.816-5.459-.816-8.972V68.075c0-3.513.251-6.462.816-8.909.564-2.509 1.505-4.579 2.697-6.148 1.255-1.569 2.887-2.761 4.893-3.513 1.945-.69 4.267-1.067 7.027-1.067h15.308c2.761 0 5.144.377 7.09 1.067 2.007.753 3.639 1.944 4.893 3.513zm-5.834 13.99c0-1.82-.063-3.387-.314-4.643-.187-1.192-.564-2.133-1.066-2.823-.439-.628-1.067-1.067-1.882-1.38-.816-.251-1.883-.439-3.2-.439h-14.681c-1.318 0-2.384.188-3.2.439-.815.313-1.443.753-1.882 1.38-.502.69-.815 1.631-1.066 2.823-.188 1.255-.314 2.823-.314 4.643v14.619c0 1.82.126 3.387.314 4.643.251 1.129.564 2.133 1.066 2.761.439.69 1.067 1.129 1.882 1.38.816.313 1.882.439 3.2.439h14.681c1.317 0 2.384-.126 3.2-.439.815-.251 1.443-.69 1.882-1.38.502-.628.879-1.631 1.066-2.761.251-1.255.314-2.823.314-4.643V67.008zm65.248-13.99c1.255 1.569 2.133 3.639 2.698 6.148.502 2.447.815 5.459.815 8.909v12.423c0 3.513-.313 6.525-.815 8.972-.565 2.509-1.443 4.579-2.698 6.211a10.59 10.59 0 0 1-4.893 3.45c-1.944.69-4.329 1.067-7.09 1.067h-15.308c-2.761 0-5.144-.377-7.026-1.067a10.27 10.27 0 0 1-4.894-3.513c-1.192-1.569-2.133-3.639-2.697-6.148-.565-2.447-.816-5.459-.816-8.972V68.075c0-3.513.251-6.462.816-8.909.564-2.509 1.505-4.579 2.697-6.148 1.255-1.569 2.887-2.761 4.894-3.513 1.944-.69 4.266-1.067 7.026-1.067h15.308c2.761 0 5.145.377 7.09 1.067 2.008.753 3.639 1.944 4.893 3.513zm-5.834 13.99c0-1.82-.062-3.387-.313-4.643-.188-1.192-.565-2.133-1.067-2.823-.439-.628-1.067-1.067-1.882-1.38-.816-.251-1.882-.439-3.2-.439h-14.681c-1.317 0-2.384.188-3.199.439-.816.313-1.444.753-1.883 1.38-.502.69-.815 1.631-1.066 2.823-.188 1.255-.314 2.823-.314 4.643v14.619c0 1.82.126 3.387.314 4.643.251 1.129.564 2.133 1.066 2.761.439.69 1.067 1.129 1.883 1.38.815.313 1.882.439 3.199.439h14.681c1.318 0 2.384-.126 3.2-.439.815-.251 1.443-.69 1.882-1.38.502-.628.879-1.631 1.067-2.761.251-1.255.313-2.823.313-4.643V67.008zm58.724 23.842c.565 0 1.757.251 1.757 2.195v4.957c0 1.944-1.192 2.195-1.757 2.195h-20.703c-2.761 0-5.145-.377-7.027-1.067-1.945-.655-3.65-1.879-4.893-3.513-1.254-1.569-2.133-3.639-2.698-6.148-.564-2.447-.879-5.459-.879-8.972V50.633c0-2.007 1.255-2.195 1.82-2.195h5.772c.503 0 1.757.188 1.757 2.195v30.931c0 1.883.062 3.451.313 4.706.188 1.129.565 2.07 1.067 2.761.439.69 1.067 1.129 1.82 1.38.879.313 1.944.439 3.262.439h20.39-.001zm45.235-21.583c3.262 0 5.772 1.192 7.466 3.451 1.631 2.259 2.447 5.459 2.447 9.536v5.521c0 3.639-.816 6.588-2.384 8.847-1.631 2.321-4.204 3.513-7.654 3.513h-28.296c-.564 0-1.82-.188-1.82-2.133v-5.019c0-1.945 1.255-2.133 1.82-2.133h26.79c1.067 0 1.443-.439 1.694-.816.377-.628.565-1.505.565-2.635v-5.396c0-3.074-1.255-3.451-2.196-3.451h-18.821c-2.636 0-5.521-.376-7.467-2.948-1.568-2.196-2.446-5.71-2.446-10.039v-4.769c0-3.638.815-6.65 2.446-8.908 1.632-2.321 4.141-3.451 7.592-3.451h27.041c.503 0 1.757.188 1.757 2.133v5.019c0 1.944-1.254 2.133-1.757 2.133H336.73c-1.067 0-1.443.439-1.694.816-.314.627-.503 1.505-.503 2.635v4.643c0 3.075 1.192 3.451 2.134 3.451h18.821-.001z" fill="#333" fill-rule="nonzero"/></svg>