<svg xmlns="http://www.w3.org/2000/svg" width="365.4" height="100.659" viewBox="0 0 369.642 101.827"><g transform="matrix(1.0734 0 0 1.0734 -19.857902 -2.830301)" fill="#999"><circle cx="60" cy="36" r="1.5"/><circle cx="45" cy="36" r="1.5"/><circle cx="65" cy="36" r="1.5"/><circle cx="40" cy="36" r="1.5"/><circle cx="55" cy="36" r="1.5"/><circle cx="50" cy="36" r="1.5"/><circle cx="75" cy="36" r="1.5"/><circle cx="70" cy="36" r="1.5"/><circle cx="30" cy="36" r="1.5"/><circle cx="35" cy="36" r="1.5"/><circle cx="25" cy="36" r="1.5"/><path d="M27.5 22.5h20a1.5 1.5 0 1 0 0-3h-20a1.5 1.5 0 1 0 0 3zm0 5h30a1.5 1.5 0 1 0 0-3h-30a1.5 1.5 0 1 0 0 3zM26 51a1.5 1.5 0 0 0 1.5 1.5h45a1.5 1.5 0 1 0 0-3h-45A1.5 1.5 0 0 0 26 51zm0-5a1.5 1.5 0 0 0 1.5 1.5h40a1.5 1.5 0 1 0 0-3h-40A1.5 1.5 0 0 0 26 46zm41.5 8.5h-40a1.5 1.5 0 1 0 0 3h40a1.5 1.5 0 1 0 0-3zm-5 5h-35a1.5 1.5 0 1 0 0 3h35a1.5 1.5 0 1 0 0-3zm-35 13h20a1.5 1.5 0 1 0 0-3h-20a1.5 1.5 0 1 0 0 3zm20 7h-20a1.5 1.5 0 1 0 0 3h20a1.5 1.5 0 1 0 0-3zm5-15h-25a1.5 1.5 0 1 0 0 3h25a1.5 1.5 0 1 0 0-3zm0 10h-25a1.5 1.5 0 1 0 0 3h25a1.5 1.5 0 1 0 0-3zm29-8.661V21c0-.097-.01-.193-.029-.288-.026-.133-.073-.253-.13-.368l-.047-.088a1.5 1.5 0 0 0-.234-.317l-15-15c-.094-.094-.203-.169-.316-.234l-.089-.047c-.114-.056-.233-.102-.358-.128-.106-.02-.201-.03-.297-.03H25.345c-3.774 0-6.845 3.071-6.845 6.846v74.309c0 3.774 3.071 6.846 6.845 6.846h37.846c2.999 3.079 7.181 5 11.809 5 9.098 0 16.5-7.402 16.5-16.5 0-6.791-4.125-12.633-10-15.162zM76.379 19.5H66.5V9.621l9.879 9.879zm-51.034 70a3.85 3.85 0 0 1-3.845-3.846V11.346A3.85 3.85 0 0 1 25.345 7.5H63.5V21a1.5 1.5 0 0 0 1.5 1.5h13.5v42.382c-1.129-.245-2.298-.382-3.5-.382-9.098 0-16.5 7.402-16.5 16.5 0 3.111.882 6.014 2.385 8.5h-35.54zM75 94.5A13.52 13.52 0 0 1 61.5 81 13.52 13.52 0 0 1 75 67.5 13.52 13.52 0 0 1 88.5 81 13.52 13.52 0 0 1 75 94.5zm10.177-16.929c-.177-.543-.646-.938-1.211-1.021l-5.266-.764-2.355-4.771a1.5 1.5 0 0 0-2.69 0L71.3 75.786l-5.265.765a1.5 1.5 0 0 0-.831 2.559l3.81 3.714-.899 5.244c-.096.563.135 1.132.597 1.468a1.5 1.5 0 0 0 1.58.114L75 87.173l4.71 2.477a1.5 1.5 0 0 0 .698.172c.311 0 .621-.097.882-.286a1.5 1.5 0 0 0 .597-1.468l-.899-5.244 3.81-3.714c.408-.399.555-.996.379-1.539zm-6.849 3.655a1.5 1.5 0 0 0-.432 1.328l.519 3.025-2.718-1.429c-.218-.114-.458-.172-.698-.172a1.51 1.51 0 0 0-.698.172l-2.718 1.429.519-3.025a1.5 1.5 0 0 0-.432-1.328l-2.198-2.143 3.038-.441a1.5 1.5 0 0 0 1.13-.82L75 75.067l1.359 2.754a1.5 1.5 0 0 0 1.13.82l3.038.441-2.199 2.144z"/></g><path d="M131.159.515c.375 0 1.311.141 1.311 1.639v30.958c0 2.295-.328 3.84-.984 4.683-.656.89-1.686 1.358-3.044 1.358h-3.419c-.656 0-1.171-.047-1.592-.141-.468-.094-.89-.234-1.265-.515-.375-.234-.703-.562-1.03-1.03a10.29 10.29 0 0 1-1.077-1.733l-14.846-26.32c-.094-.141-.141-.141-.141-.141h-.234v28.241c0 1.452-.89 1.639-1.311 1.639h-4.168c-.422 0-1.358-.187-1.358-1.639V6.557c0-2.295.328-3.84.984-4.73.656-.843 1.686-1.311 3.044-1.311h3.513a16.35 16.35 0 0 1 1.639.094c.515.094.937.281 1.311.562.328.234.656.609.984 1.077.328.422.656.984 1.03 1.686l14.8 26.321c.047.141.094.141.141.141h.234V2.154c0-1.499.89-1.639 1.311-1.639h4.168zm39.107 15.69c.375 0 1.311.187 1.311 1.639v3.7c0 1.452-.937 1.592-1.311 1.592h-20.935c-.047 0-.094 14.378-.094 14.378 0 1.452-.937 1.639-1.311 1.639h-4.309c-.375 0-1.311-.187-1.311-1.639l.094-18.078c.094-.422.281-.843.468-1.218.703-1.124 1.873-1.873 3.232-1.967zM170.5.515c.375 0 1.311.141 1.311 1.639v3.7c0 1.452-.937 1.592-1.311 1.592h-26.93c-.375 0-1.265-.187-1.265-1.639V2.201c0-1.499.89-1.686 1.265-1.686h26.93zm43.51 0c.422 0 1.358.141 1.358 1.592V5.76c0 1.546-.937 1.686-1.358 1.686h-12.037v30.068c0 1.452-.89 1.592-1.311 1.592h-4.309c-.375 0-1.311-.141-1.311-1.592V7.447h-12.037c-.422 0-1.358-.141-1.358-1.686V2.108c0-1.452.937-1.592 1.358-1.592h31.005zm66.224 0c.375 0 1.311.187 1.311 1.639V5.76c0 1.499-.937 1.686-1.311 1.686H263.42c-.984 0-1.827.094-2.435.328-.609.187-1.03.515-1.405 1.03s-.609 1.171-.796 2.061c-.141.89-.234 2.061-.234 3.466v10.913c0 1.405.094 2.576.234 3.513.187.89.422 1.592.796 2.061.375.515.796.843 1.405 1.03.609.234 1.452.328 2.435.328h16.814c.375 0 1.311.187 1.311 1.639v3.7c0 1.452-.937 1.639-1.311 1.639h-17.048c-2.061 0-3.84-.281-5.292-.796s-2.67-1.405-3.606-2.576c-.937-1.218-1.639-2.763-2.061-4.59-.422-1.873-.609-4.121-.609-6.744v-9.273c0-2.576.187-4.824.609-6.651.422-1.873 1.124-3.419 2.061-4.59.89-1.171 2.108-2.061 3.606-2.623 1.452-.515 3.232-.796 5.292-.796h17.048zm33.768 15.549c2.435 0 4.309.89 5.573 2.576 1.218 1.686 1.827 4.075 1.827 7.119v4.121c0 2.716-.609 4.918-1.78 6.604-1.218 1.733-3.138 2.623-5.714 2.623h-21.122c-.422 0-1.358-.141-1.358-1.592v-3.747c0-1.452.937-1.592 1.358-1.592h19.998c.796 0 1.077-.328 1.265-.609.281-.468.422-1.124.422-1.967v-4.028c0-2.295-.937-2.576-1.639-2.576h-14.05c-1.967 0-4.121-.281-5.573-2.201-1.171-1.639-1.827-4.262-1.827-7.494V9.742c0-2.716.609-4.964 1.827-6.651 1.218-1.733 3.091-2.576 5.667-2.576h20.186c.375 0 1.311.141 1.311 1.592v3.747c0 1.452-.937 1.592-1.311 1.592H300c-.796 0-1.077.328-1.265.609-.234.468-.375 1.124-.375 1.967v3.466c0 2.295.89 2.576 1.592 2.576h14.05zM368.565 0c.703 0 .937.422 1.03.656.094.328.047.703-.141 1.171l-13.02 32.41c-.703 1.686-1.358 2.81-2.061 3.419-.187.187-.422.328-.703.468a5.64 5.64 0 0 1-3.232 1.03 5.82 5.82 0 0 1-5.573-4.215l-.328-.703-13.114-32.41c-.187-.468-.234-.843-.141-1.171.047-.187.281-.656.984-.656h5.058c.656 0 1.124.328 1.311.984l11.662 28.991c.047.094.047.141.047.141l.187-.047s.047 0 .047-.094L362.055.984c.281-.656.749-.984 1.358-.984h5.152zM141.856 49c.571 0 1.841.19 1.841 2.158v4.95c0 2.094-1.269 2.285-1.841 2.285h-16.311V99.14c0 1.967-1.206 2.158-1.777 2.158h-5.839c-.508 0-1.777-.19-1.777-2.158V58.393H99.841c-.571 0-1.841-.19-1.841-2.285v-4.95C98 49.19 99.269 49 99.841 49h42.016zm58.39 4.633c1.269 1.587 2.158 3.681 2.729 6.22.508 2.475.825 5.522.825 9.012v12.567c0 3.554-.317 6.601-.825 9.076-.571 2.539-1.46 4.633-2.729 6.283-1.269 1.587-2.92 2.793-4.95 3.491-1.967.698-4.379 1.079-7.172 1.079h-15.486c-2.793 0-5.204-.381-7.108-1.079a10.39 10.39 0 0 1-4.95-3.554c-1.206-1.587-2.158-3.681-2.729-6.22-.571-2.475-.825-5.522-.825-9.076V68.865c0-3.554.254-6.537.825-9.012.571-2.539 1.523-4.633 2.729-6.22 1.269-1.587 2.92-2.793 4.95-3.554 1.967-.698 4.316-1.079 7.108-1.079h15.486c2.793 0 5.204.381 7.172 1.079 2.031.762 3.681 1.967 4.95 3.554zm-5.902 14.153c0-1.841-.063-3.427-.317-4.697-.19-1.206-.571-2.158-1.079-2.856-.444-.635-1.079-1.079-1.904-1.396-.825-.254-1.904-.444-3.237-.444h-14.851c-1.333 0-2.412.19-3.237.444-.825.317-1.46.762-1.904 1.396-.508.698-.825 1.65-1.079 2.856-.19 1.269-.317 2.856-.317 4.697v14.788c0 1.841.127 3.427.317 4.697.254 1.142.571 2.158 1.079 2.793.444.698 1.079 1.142 1.904 1.396.825.317 1.904.444 3.237.444h14.851c1.333 0 2.412-.127 3.237-.444.825-.254 1.46-.698 1.904-1.396.508-.635.889-1.65 1.079-2.793.254-1.269.317-2.856.317-4.697V67.786zm66.006-14.153c1.269 1.587 2.158 3.681 2.729 6.22.508 2.475.825 5.522.825 9.012v12.567c0 3.554-.317 6.601-.825 9.076-.571 2.539-1.46 4.633-2.729 6.283-1.269 1.587-2.92 2.793-4.95 3.491-1.967.698-4.379 1.079-7.172 1.079h-15.486c-2.793 0-5.204-.381-7.108-1.079a10.39 10.39 0 0 1-4.95-3.554c-1.206-1.587-2.158-3.681-2.729-6.22-.571-2.475-.825-5.522-.825-9.076V68.865c0-3.554.254-6.537.825-9.012.571-2.539 1.523-4.633 2.729-6.22 1.269-1.587 2.92-2.793 4.95-3.554 1.967-.698 4.316-1.079 7.108-1.079h15.486c2.793 0 5.204.381 7.172 1.079 2.031.762 3.681 1.967 4.95 3.554zm-5.902 14.153c0-1.841-.063-3.427-.317-4.697-.19-1.206-.571-2.158-1.079-2.856-.444-.635-1.079-1.079-1.904-1.396-.825-.254-1.904-.444-3.237-.444H233.06c-1.333 0-2.412.19-3.237.444-.825.317-1.46.762-1.904 1.396-.508.698-.825 1.65-1.079 2.856-.19 1.269-.317 2.856-.317 4.697v14.788c0 1.841.127 3.427.317 4.697.254 1.142.571 2.158 1.079 2.793.444.698 1.079 1.142 1.904 1.396.825.317 1.904.444 3.237.444h14.851c1.333 0 2.412-.127 3.237-.444.825-.254 1.46-.698 1.904-1.396.508-.635.889-1.65 1.079-2.793.254-1.269.317-2.856.317-4.697V67.786zm59.406 24.118c.571 0 1.777.254 1.777 2.221v5.014c0 1.967-1.206 2.221-1.777 2.221H292.91c-2.793 0-5.204-.381-7.108-1.079a10.39 10.39 0 0 1-4.95-3.554c-1.269-1.587-2.158-3.681-2.729-6.22-.571-2.475-.889-5.522-.889-9.076v-30.21c0-2.031 1.269-2.221 1.841-2.221h5.839c.508 0 1.777.19 1.777 2.221v31.29c0 1.904.063 3.491.317 4.76.19 1.142.571 2.094 1.079 2.793.444.698 1.079 1.142 1.841 1.396.889.317 1.967.444 3.3.444h20.627zm45.76-21.833c3.3 0 5.839 1.206 7.553 3.491 1.65 2.285 2.475 5.522 2.475 9.647v5.585c0 3.681-.825 6.664-2.412 8.949-1.65 2.348-4.252 3.554-7.743 3.554h-28.624c-.571 0-1.841-.19-1.841-2.158v-5.077c0-1.967 1.269-2.158 1.841-2.158h27.101c1.079 0 1.46-.444 1.714-.825.381-.635.571-1.523.571-2.666v-5.458c0-3.11-1.269-3.491-2.221-3.491h-19.04c-2.666 0-5.585-.381-7.553-2.983-1.587-2.221-2.475-5.776-2.475-10.155v-4.824c0-3.681.825-6.728 2.475-9.012 1.65-2.348 4.189-3.491 7.68-3.491h27.355c.508 0 1.777.19 1.777 2.158v5.077c0 1.967-1.269 2.158-1.777 2.158h-25.831c-1.079 0-1.46.444-1.714.825-.317.635-.508 1.523-.508 2.666v4.697c0 3.11 1.206 3.491 2.158 3.491h19.04z" fill="#fff"/></svg>