<svg width="1280" height="480" viewBox="0 0 1280 480" fill="none" xmlns="http://www.w3.org/2000/svg">
<g clip-path="url(#clip0_1005_174)">
<path fill-rule="evenodd" clip-rule="evenodd" d="M320 80H480V160V240V320V400H320V320V240V160V80ZM880 80H1040V160V240V320V400H880V320V240V160V80Z" fill="white"/>
<path fill-rule="evenodd" clip-rule="evenodd" d="M480 80H640V160V240V320V400H480V320V240V160V80ZM1040 80H1200V160V240V320V400H1040V320V240V160V80Z" fill="black"/>
<path fill-rule="evenodd" clip-rule="evenodd" d="M720 0H240V80V160H0V240V320V400H80V320V240H240V320V400V480H720V400V320V240H800V320V400V480H1280V400V320V240V160V80V0H800V80V160H720V80V0ZM1200 400V320V240V160V80H880V160V240V320V400H1200ZM640 400H320V320V240V160V80H640V160V240V320V400Z" fill="#8F0101"/>
</g>
<defs>
<clipPath id="clip0_1005_174">
<rect width="1280" height="480" fill="white"/>
</clipPath>
</defs>
</svg>
